<svg width="18" height="5" viewBox="0 0 18 5" fill="none" xmlns="http://www.w3.org/2000/svg">
<path d="M3.58201 4.26V1.224L2.32801 3.528H1.932L0.672005 1.224V4.26H0V0H0.720005L2.13 2.604L3.54001 0H4.26V4.26H3.58201ZM6.49397 4.32C6.24597 4.32 6.02396 4.278 5.82796 4.194C5.63196 4.106 5.46197 3.986 5.31797 3.834C5.17797 3.682 5.06997 3.51 4.99397 3.318C4.91797 3.122 4.87996 2.914 4.87996 2.694C4.87996 2.474 4.91797 2.266 4.99397 2.07C5.06997 1.874 5.17797 1.702 5.31797 1.554C5.46197 1.402 5.63196 1.284 5.82796 1.2C6.02796 1.112 6.24997 1.068 6.49397 1.068C6.73797 1.068 6.95797 1.112 7.15396 1.2C7.35396 1.284 7.52396 1.402 7.66396 1.554C7.80796 1.702 7.91796 1.874 7.99396 2.07C8.06996 2.266 8.10797 2.474 8.10797 2.694C8.10797 2.914 8.06996 3.122 7.99396 3.318C7.91796 3.51 7.80796 3.682 7.66396 3.834C7.52396 3.986 7.35396 4.106 7.15396 4.194C6.95797 4.278 6.73797 4.32 6.49397 4.32ZM5.55796 2.7C5.55796 2.9 5.59997 3.08 5.68397 3.24C5.76797 3.4 5.87997 3.526 6.01997 3.618C6.15997 3.71 6.31797 3.756 6.49397 3.756C6.66597 3.756 6.82197 3.71 6.96197 3.618C7.10597 3.522 7.21997 3.394 7.30397 3.234C7.38797 3.07 7.42996 2.89 7.42996 2.694C7.42996 2.494 7.38797 2.314 7.30397 2.154C7.21997 1.994 7.10597 1.868 6.96197 1.776C6.82197 1.68 6.66597 1.632 6.49397 1.632C6.31797 1.632 6.15997 1.68 6.01997 1.776C5.87997 1.872 5.76797 2 5.68397 2.16C5.59997 2.316 5.55796 2.496 5.55796 2.7ZM10.4573 1.692C10.2013 1.696 9.97332 1.754 9.77332 1.866C9.57732 1.978 9.43732 2.136 9.35332 2.34V4.26H8.69334V1.122H9.30532V1.824C9.41332 1.608 9.55533 1.436 9.73133 1.308C9.90733 1.176 10.0933 1.104 10.2893 1.092C10.3293 1.092 10.3613 1.092 10.3853 1.092C10.4133 1.092 10.4373 1.094 10.4573 1.098V1.692ZM12.3009 4.32C12.0569 4.32 11.8349 4.278 11.6349 4.194C11.4389 4.106 11.2689 3.988 11.1249 3.84C10.9809 3.688 10.8689 3.516 10.7889 3.324C10.7129 3.128 10.6749 2.92 10.6749 2.7C10.6749 2.404 10.7429 2.134 10.8789 1.89C11.0149 1.642 11.2049 1.444 11.4489 1.296C11.6929 1.144 11.9789 1.068 12.3069 1.068C12.6349 1.068 12.9169 1.144 13.1529 1.296C13.3929 1.444 13.5789 1.64 13.7109 1.884C13.8429 2.128 13.9089 2.39 13.9089 2.67C13.9089 2.718 13.9069 2.764 13.9029 2.808C13.8989 2.848 13.8949 2.882 13.8909 2.91H11.3769C11.3889 3.094 11.4389 3.256 11.5269 3.396C11.6189 3.532 11.7349 3.64 11.8749 3.72C12.0149 3.796 12.1649 3.834 12.3249 3.834C12.5009 3.834 12.6669 3.79 12.8229 3.702C12.9829 3.614 13.0909 3.498 13.1469 3.354L13.7109 3.516C13.6429 3.668 13.5389 3.806 13.3989 3.93C13.2629 4.05 13.1009 4.146 12.9129 4.218C12.7249 4.286 12.5209 4.32 12.3009 4.32ZM11.3589 2.472H13.2549C13.2429 2.292 13.1909 2.134 13.0989 1.998C13.0109 1.858 12.8969 1.75 12.7569 1.674C12.6209 1.594 12.4689 1.554 12.3009 1.554C12.1369 1.554 11.9849 1.594 11.8449 1.674C11.7089 1.75 11.5969 1.858 11.5089 1.998C11.4209 2.134 11.3709 2.292 11.3589 2.472Z" fill="black"/>
<path d="M18 2.37785V2.78827H16.7296V4.16612H16.2801V2.78827H15V2.37785H16.2801V1H16.7296V2.37785H18Z" fill="black"/>
</svg>
