<svg width="20" height="8" viewBox="0 0 20 8" fill="none" xmlns="http://www.w3.org/2000/svg">
<path d="M10.8917 1.73333C12.9967 1.73333 14.0083 3.3975 14.0083 4.82167C14.0083 6.24583 12.9967 7.91 10.8917 7.91C8.78583 7.91 7.775 6.24583 7.775 4.82167C7.775 3.3975 8.78583 1.73333 10.8917 1.73333ZM10.8917 6.2875C11.6417 6.2875 12.2775 5.67 12.2775 4.82167C12.2775 3.97333 11.6417 3.35583 10.8917 3.35583C10.1417 3.35583 9.505 3.97333 9.505 4.82167C9.505 5.67 10.1417 6.28833 10.8917 6.28833M14.9858 0H16.7392V7.74833H14.9858V0ZM18.8342 5.4725C18.6812 5.47261 18.5297 5.50285 18.3884 5.5615C18.2471 5.62015 18.1187 5.70605 18.0106 5.81431C17.7923 6.03295 17.6698 6.32936 17.67 6.63833C17.6702 6.94731 17.7932 7.24354 18.0118 7.46187C18.2304 7.68019 18.5269 7.80272 18.8358 7.8025C19.1448 7.80228 19.441 7.67933 19.6594 7.46069C19.8777 7.24205 20.0002 6.94564 20 6.63667C19.9998 6.32769 19.8768 6.03145 19.6582 5.81313C19.4396 5.59481 19.1431 5.47228 18.8342 5.4725ZM4.61333 0H3.05167L0 7.74667H2.06833L2.47667 6.6275H5.16833L5.545 7.74667H7.63333L4.61333 0ZM3.02167 5.05667L3.83333 2.355L4.645 5.05667H3.02167Z" fill="black"/>
</svg>
