<svg width="22" height="17" viewBox="0 0 22 17" fill="none" xmlns="http://www.w3.org/2000/svg">
<path d="M17.0505 1.5238L11.0634 6.19625L4.93945 1.5238V1.52506L4.94685 1.53138V8.07405L10.9944 12.8475L17.0505 8.25835V1.5238Z" fill="#EA4335"/>
<path d="M18.6241 0.386265L17.0518 1.52279V8.25738L21.9993 4.45888V2.17062C21.9993 2.17062 21.3988 -1.09755 18.6241 0.386265Z" fill="#FBBC05"/>
<path d="M17.0518 8.25724V16.9921H20.8438C20.8438 16.9921 21.9229 16.881 22.0005 15.651V4.45874L17.0518 8.25724Z" fill="#34A853"/>
<path d="M4.94713 17.0001V8.07319L4.93945 8.06689L4.94713 17.0001Z" fill="#C5221F"/>
<path d="M4.93867 1.52404L3.375 0.393823C0.600325 -1.08999 -0.00146484 2.17692 -0.00146484 2.17692V4.4651L4.93867 8.0667V1.52404Z" fill="#C5221F"/>
<path d="M4.93945 1.52429V8.06698L4.94713 8.07328V1.53061L4.93945 1.52429Z" fill="#C5221F"/>
<path d="M-0.00146484 4.46558V15.6579C0.0749952 16.8892 1.15527 16.9991 1.15527 16.9991H4.94731L4.93868 8.06588L-0.00146484 4.46558Z" fill="#4285F4"/>
</svg>
