<svg width="25" height="8" viewBox="0 0 25 8" fill="none" xmlns="http://www.w3.org/2000/svg">
<path d="M21.5766 3.72591L23.6858 0.218923H21.5345L20.4146 1.99978L19.2105 0.218923H16.8529L19.3368 3.7217L16.8529 7.67496H19.2105L20.5536 5.42678L22.145 7.67496H24.25L21.5766 3.72591ZM13.7838 0.214714L12.1839 4.20586L10.6683 0.214714H8.75694L7.48971 7.68338H9.42213L10.0452 3.38069H10.0663L11.7798 7.68338H12.5544L14.3479 3.38069H14.3732L14.9163 7.68338H16.8571L15.7246 0.214714H13.7838ZM3.94063 3.51962V5.03945H5.52361C5.43941 5.88989 4.79527 6.32774 3.96168 6.32774C2.69444 6.32774 2.0082 5.16155 2.0082 4.00378C2.0082 2.84601 2.66497 1.66298 3.9322 1.66298C4.71107 1.66298 5.2668 2.13451 5.53624 2.83759L7.36762 2.07135C6.72769 0.686241 5.54887 0 4.02062 0C1.6293 0 0 1.58299 0 3.99115C0 6.32353 1.62088 7.90651 3.95325 7.90651C5.19102 7.90651 6.28563 7.46445 7.00977 6.44983C7.65812 5.53203 7.75074 4.60161 7.76758 3.51541H3.94063V3.51962Z" fill="#004788"/>
</svg>
