<svg width="16" height="16" viewBox="0 0 16 16" fill="none" xmlns="http://www.w3.org/2000/svg">
<path d="M9.82324 3.36438V6.46831L10.9091 7.15121C10.9483 7.15983 10.9889 7.15983 11.0281 7.15121L15.6967 4.00364C15.6933 3.85088 15.6374 3.70395 15.5385 3.58754C15.4395 3.47112 15.3035 3.39232 15.1533 3.36438H9.82324Z" fill="#0072C6"/>
<path d="M9.82283 7.6263L10.8129 8.30637C10.8593 8.3346 10.9125 8.34953 10.9668 8.34953C11.021 8.34953 11.0743 8.3346 11.1206 8.30637C10.9506 8.40895 15.6958 5.25854 15.6958 5.25854V10.9632C15.7081 11.0787 15.6951 11.1957 15.6576 11.3057C15.62 11.4157 15.5589 11.5162 15.4785 11.6002C15.3981 11.6841 15.3003 11.7494 15.1919 11.7916C15.0836 11.8338 14.9674 11.8518 14.8513 11.8444H9.82227L9.82283 7.6263Z" fill="#0072C6"/>
<path d="M4.69714 6.1951C4.53264 6.19431 4.37099 6.23803 4.22931 6.32164C4.08764 6.40525 3.97122 6.52562 3.8924 6.67001C3.67711 7.05276 3.57381 7.48834 3.5943 7.927C3.57193 8.36475 3.67537 8.79976 3.8924 9.18058C3.97089 9.31903 4.08444 9.43438 4.22164 9.51503C4.35884 9.59569 4.51484 9.63882 4.67399 9.64008C4.83313 9.64135 4.98981 9.6007 5.12827 9.52223C5.26673 9.44376 5.3821 9.33023 5.46278 9.19305C5.67744 8.81398 5.77874 8.38123 5.75464 7.94627C5.77922 7.49764 5.68127 7.05078 5.47128 6.65358C5.39624 6.5139 5.28447 6.39737 5.14804 6.31657C5.01161 6.23577 4.8557 6.19377 4.69714 6.1951Z" fill="#0072C6"/>
<path d="M0 1.788V13.9311L9.23755 15.8682V0L0 1.788ZM6.18179 9.91251C6.00899 10.1561 5.77922 10.3538 5.51251 10.4882C5.2458 10.6226 4.95026 10.6898 4.65164 10.6838C4.36055 10.689 4.07251 10.6238 3.81202 10.4937C3.55153 10.3637 3.32631 10.1727 3.1555 9.93688C2.7504 9.3713 2.54775 8.68569 2.58028 7.99076C2.54582 7.26176 2.75213 6.54166 3.1674 5.9415C3.34239 5.69324 3.57577 5.49184 3.84696 5.35506C4.11815 5.21827 4.41883 5.15031 4.72248 5.15716C5.01147 5.15136 5.29747 5.21659 5.55537 5.34712C5.81326 5.47765 6.03518 5.66949 6.20163 5.9058C6.60267 6.48365 6.80188 7.17767 6.76835 7.88025C6.80368 8.60398 6.59733 9.31891 6.18179 9.91251Z" fill="#0072C6"/>
</svg>
