<svg width="92" height="60" viewBox="0 0 92 60" fill="none" xmlns="http://www.w3.org/2000/svg">
<path d="M25.7481 41.798C33.9898 41.798 40.671 35.0272 40.671 26.675C40.671 18.3229 33.9898 11.5521 25.7481 11.5521C17.5064 11.5521 10.8252 18.3229 10.8252 26.675C10.8252 35.0272 17.5064 41.798 25.7481 41.798Z" fill="url(#paint0_linear_94_185)"/>
<path d="M91.8332 40.7187C91.8332 30.577 83.7207 22.3541 73.7123 22.3541C63.704 22.3541 55.5915 30.577 55.5915 40.7187C55.5915 41.0833 55.6248 41.4396 55.6457 41.8H38.4123C38.4894 41.0896 38.5373 40.3708 38.5373 39.6396C38.5373 28.9 29.9478 20.1958 19.3519 20.1958C8.75609 20.1937 0.166504 28.9 0.166504 39.6396C0.166504 50.3791 8.75609 59.0833 19.3519 59.0833H75.1665C84.6748 58.5208 91.8332 50.4958 91.8332 40.7187Z" fill="url(#paint1_linear_94_185)"/>
<path d="M38.0314 35.2541C36.0669 26.6291 28.4606 20.1937 19.3523 20.1937C16.596 20.1937 13.9814 20.7937 11.6127 21.8541C11.1085 23.3708 10.8252 24.9875 10.8252 26.675C10.8252 35.0271 17.5064 41.7979 25.7481 41.7979C30.8439 41.8 35.3398 39.2062 38.0314 35.2541Z" fill="url(#paint2_linear_94_185)"/>
<path d="M52.3959 50.4417C65.935 50.4417 76.9105 39.3178 76.9105 25.5958C76.9105 11.8739 65.935 0.75 52.3959 0.75C38.8569 0.75 27.8813 11.8739 27.8813 25.5958C27.8813 39.3178 38.8569 50.4417 52.3959 50.4417Z" fill="url(#paint3_linear_94_185)"/>
<path d="M31.4648 12.7063C29.2044 16.4667 27.8794 20.8688 27.8794 25.5938C27.8794 31.0271 29.6211 36.0396 32.5398 40.1292C37.3627 37.623 40.669 32.5459 40.669 26.675C40.6711 20.3771 36.869 14.9813 31.4648 12.7063Z" fill="url(#paint4_linear_94_185)"/>
<path d="M28.0981 22.35C27.9586 23.4125 27.8794 24.4937 27.8794 25.5958C27.8794 31.0291 29.619 36.0375 32.5377 40.1271C32.5481 40.1208 32.5606 40.1166 32.5711 40.1125C33.7481 39.4979 34.8336 38.7271 35.8044 37.8312C35.8877 37.7541 35.9627 37.6666 36.044 37.5854C36.4148 37.2271 36.7711 36.8521 37.1044 36.4562C37.2502 36.2833 37.3815 36.0979 37.519 35.9187C37.694 35.6896 37.8586 35.4541 38.0211 35.2166C36.7294 29.5979 33.0336 24.925 28.0981 22.35Z" fill="url(#paint5_linear_94_185)"/>
<path d="M55.5938 40.7187C55.5938 44.0145 56.4625 47.1 57.9604 49.7729C68.8146 47.2145 76.9104 37.3729 76.9104 25.5937C76.9104 24.5875 76.8333 23.602 76.7187 22.627C75.7396 22.4604 74.7396 22.3541 73.7125 22.3541C63.7062 22.3541 55.5938 30.577 55.5938 40.7187Z" fill="url(#paint6_linear_94_185)"/>
<defs>
<linearGradient id="paint0_linear_94_185" x1="10.3669" y1="26.6584" x2="53.0252" y2="26.7084" gradientUnits="userSpaceOnUse">
<stop offset="0.309" stop-color="#33BEF0"/>
<stop offset="1" stop-color="#0A85D9"/>
</linearGradient>
<linearGradient id="paint1_linear_94_185" x1="-0.470996" y1="39.5354" x2="77.2957" y2="39.9437" gradientUnits="userSpaceOnUse">
<stop offset="0.309" stop-color="#33BEF0"/>
<stop offset="1" stop-color="#0A85D9"/>
</linearGradient>
<linearGradient id="paint2_linear_94_185" x1="25.9335" y1="59.4729" x2="22.6231" y2="-2.77294" gradientUnits="userSpaceOnUse">
<stop offset="0.404" stop-color="#33BEF0"/>
<stop offset="1" stop-color="#0A85D9"/>
</linearGradient>
<linearGradient id="paint3_linear_94_185" x1="-7.77074" y1="69.9271" x2="78.1355" y2="6.62917" gradientUnits="userSpaceOnUse">
<stop offset="0.309" stop-color="#33BEF0"/>
<stop offset="1" stop-color="#0A85D9"/>
</linearGradient>
<linearGradient id="paint4_linear_94_185" x1="62.5856" y1="25.3" x2="17.9523" y2="26.9334" gradientUnits="userSpaceOnUse">
<stop offset="0.246" stop-color="#33BEF0"/>
<stop offset="1" stop-color="#0A85D9"/>
</linearGradient>
<linearGradient id="paint5_linear_94_185" x1="51.5523" y1="75.252" x2="19.6002" y2="1.98331" gradientUnits="userSpaceOnUse">
<stop offset="0.415" stop-color="#33BEF0"/>
<stop offset="0.652" stop-color="#1797E0"/>
<stop offset="0.795" stop-color="#0A85D9"/>
</linearGradient>
<linearGradient id="paint6_linear_94_185" x1="20.7729" y1="92.1645" x2="75.125" y2="22.9874" gradientUnits="userSpaceOnUse">
<stop offset="0.309" stop-color="#33BEF0"/>
<stop offset="1" stop-color="#0A85D9"/>
</linearGradient>
</defs>
</svg>
