<svg width="20" height="19" viewBox="0 0 20 19" fill="none" xmlns="http://www.w3.org/2000/svg">
<path fill-rule="evenodd" clip-rule="evenodd" d="M0.23197 3.34445C-0.135142 3.5575 -0.0469383 4.25078 0.358767 5.15712C1.77753 8.32651 3.74176 10.9186 6.24724 12.8698C8.29928 11.5749 6.89146 10.8334 7.15967 9.92402C7.58686 9.02362 7.72506 8.14752 8.85663 7.84721L8.71804 6.98135C6.76685 5.20313 4.53075 3.84312 2.00987 3.17109C1.46581 3.02601 0.824473 3.00007 0.23197 3.34445Z" fill="#00A3E1"/>
<path fill-rule="evenodd" clip-rule="evenodd" d="M10.0688 7.40842C10.9695 8.93265 11.5814 10.3527 11.9278 11.7499L11.9739 12.0038L12.0548 12.2694C13.1861 12.7427 14.3524 12.9622 15.5647 12.8236C16.8232 12.6504 17.7352 12.1308 18.2896 11.2302L18.9477 9.70625C18.1163 8.1935 16.7308 7.23545 14.7911 6.88896C13.14 6.63482 11.5814 6.80818 10.0688 7.40842Z" fill="#F4A85E"/>
<path fill-rule="evenodd" clip-rule="evenodd" d="M11.928 11.7499C11.5816 10.3528 10.9697 8.93268 10.069 7.40853L9.97678 7.28149L9.50319 6.54266C9.28381 6.24235 9.13397 6.17586 8.93756 6.26258C8.7324 6.35297 8.6374 6.50797 8.7181 6.85438V6.98134L8.8567 7.8472L8.89139 8.14752L10.4501 12.4426L10.6233 12.7889C11.1429 13.6088 11.7086 14.3015 12.2742 14.8211L12.055 12.3965L11.9741 12.0038L11.928 11.7499Z" fill="#2264A9"/>
<path fill-rule="evenodd" clip-rule="evenodd" d="M10.0688 7.40848C11.5813 6.80824 13.1399 6.63496 14.791 6.88902C16.7308 7.23551 18.1162 8.19364 18.9475 9.7063C20.1945 6.36933 20.3816 3.55221 19.2477 1.34696C19.0469 0.956252 18.7333 0.617344 18.3818 0.353983C17.6942 -0.161254 16.8753 -0.0726601 16.0032 0.353983C12.534 2.05181 10.3892 4.22088 9.65039 6.77262L9.97649 7.28152L10.0688 7.40848Z" fill="#EC613F"/>
<path fill-rule="evenodd" clip-rule="evenodd" d="M8.89143 8.1476L8.85674 7.84729C7.72517 8.1476 6.94017 8.75964 6.5129 9.66011C6.07415 10.5722 5.99321 11.6114 6.24735 12.8699L7.15962 13.4817C8.07315 13.7598 8.9776 13.9108 9.84972 13.6089L10.6234 12.789L10.4502 12.4427L8.89143 8.1476Z" fill="#00AB58"/>
<path fill-rule="evenodd" clip-rule="evenodd" d="M6.24707 12.8696C7.15934 15.2135 8.48794 17.0089 10.4151 17.9385C10.6998 18.0758 11.0608 18.0806 11.3619 17.9846C11.5573 17.9223 11.667 17.6966 11.7544 17.5112C12.0555 16.873 12.1816 15.9873 12.274 14.8211C11.7084 14.3014 11.1426 13.6088 10.623 12.7889C8.94896 13.8682 8.01411 14.055 6.24707 12.8696Z" fill="#75C05B"/>
<path fill-rule="evenodd" clip-rule="evenodd" d="M15.6571 17.0263C16.0013 17.0635 16.2828 16.8766 16.5229 16.68C17.4967 15.8824 18.2293 14.9097 18.6821 13.6895C19.1763 12.3578 19.2478 11.0571 18.9475 9.7063L18.2897 11.2303C17.7353 12.1308 16.8232 12.6505 15.5646 12.8237C14.3524 12.9623 13.1861 12.7428 12.0547 12.2694L12.0548 12.3965L12.274 14.821C13.0477 15.6409 13.9952 16.3566 15.0913 16.8531C15.2709 16.9345 15.461 17.0052 15.6571 17.0263Z" fill="#FFCC35"/>
</svg>
