<svg width="21" height="19" viewBox="0 0 21 19" fill="none" xmlns="http://www.w3.org/2000/svg">
<path d="M18.375 0H7.875C7.15013 0 6.5625 0.587626 6.5625 1.3125V17.0625C6.5625 17.7874 7.15013 18.375 7.875 18.375H18.375C19.0999 18.375 19.6875 17.7874 19.6875 17.0625V1.3125C19.6875 0.587626 19.0999 0 18.375 0Z" fill="#1066B5"/>
<path d="M18.375 0H7.875C7.15013 0 6.5625 0.587626 6.5625 1.3125V17.0625C6.5625 17.7874 7.15013 18.375 7.875 18.375H18.375C19.0999 18.375 19.6875 17.7874 19.6875 17.0625V1.3125C19.6875 0.587626 19.0999 0 18.375 0Z" fill="url(#paint0_linear_93_144)"/>
<path d="M13.125 1.96875H6.5625V8.53125H13.125V1.96875Z" fill="#32A9E7"/>
<path d="M13.125 8.53125H6.5625V15.0938H13.125V8.53125Z" fill="#167EB4"/>
<path d="M19.6875 8.53125H13.125V15.0938H19.6875V8.53125Z" fill="#32A9E7"/>
<path d="M19.6875 1.96875H13.125V8.53125H19.6875V1.96875Z" fill="#58D9FD"/>
<mask id="mask0_93_144" style="mask-type:alpha" maskUnits="userSpaceOnUse" x="5" y="7" width="16" height="12">
<path d="M5.25 7.875H19.6875C20.4124 7.875 21 8.46261 21 9.1875V17.0625C21 17.7874 20.4124 18.375 19.6875 18.375H6.5625C5.83763 18.375 5.25 17.7874 5.25 17.0625V7.875Z" fill="url(#paint1_linear_93_144)"/>
</mask>
<g mask="url(#mask0_93_144)">
<path d="M21 7.875V10.5H19.6875V7.875H21Z" fill="#135298"/>
<path d="M21 18.375V9.1875L4.59375 18.375H21Z" fill="url(#paint2_linear_93_144)"/>
<path d="M5.25 18.375V9.1875L21.6562 18.375H5.25Z" fill="url(#paint3_linear_93_144)"/>
</g>
<path d="M5.25 6.5625C5.25 5.47516 6.13144 4.59375 7.21875 4.59375H11.1562C12.2436 4.59375 13.125 5.47516 13.125 6.5625V14.4375C13.125 15.5248 12.2436 16.4062 11.1562 16.4062H5.25V6.5625Z" fill="black" fill-opacity="0.3"/>
<path d="M10.5 3.28125H1.3125C0.587626 3.28125 0 3.86888 0 4.59375V13.7812C0 14.5061 0.587626 15.0938 1.3125 15.0938H10.5C11.2249 15.0938 11.8125 14.5061 11.8125 13.7812V4.59375C11.8125 3.86888 11.2249 3.28125 10.5 3.28125Z" fill="url(#paint4_linear_93_144)"/>
<path d="M9.1875 9.23298V9.12384C9.1875 7.23332 7.82722 5.90625 5.91663 5.90625C3.99565 5.90625 2.625 7.24238 2.625 9.14202V9.25116C2.625 11.1417 3.98526 12.4688 5.90625 12.4688C7.81686 12.4688 9.1875 11.1326 9.1875 9.23298ZM7.64032 9.25116C7.64032 10.5054 6.93427 11.2599 5.91663 11.2599C4.89903 11.2599 4.18256 10.4873 4.18256 9.23298V9.12384C4.18256 7.86955 4.88865 7.11513 5.90625 7.11513C6.91346 7.11513 7.64032 7.88773 7.64032 9.14202V9.25116Z" fill="white"/>
<defs>
<linearGradient id="paint0_linear_93_144" x1="6.5625" y1="9.1875" x2="19.6875" y2="9.1875" gradientUnits="userSpaceOnUse">
<stop stop-color="#064484"/>
<stop offset="1" stop-color="#0F65B5"/>
</linearGradient>
<linearGradient id="paint1_linear_93_144" x1="5.25" y1="16.2548" x2="21" y2="16.2548" gradientUnits="userSpaceOnUse">
<stop stop-color="#1B366F"/>
<stop offset="1" stop-color="#2657B0"/>
</linearGradient>
<linearGradient id="paint2_linear_93_144" x1="21" y1="13.7813" x2="5.25" y2="13.7813" gradientUnits="userSpaceOnUse">
<stop stop-color="#44DCFD"/>
<stop offset="0.453125" stop-color="#259ED0"/>
</linearGradient>
<linearGradient id="paint3_linear_93_144" x1="5.25" y1="13.7813" x2="21" y2="13.7813" gradientUnits="userSpaceOnUse">
<stop stop-color="#259ED0"/>
<stop offset="1" stop-color="#44DCFD"/>
</linearGradient>
<linearGradient id="paint4_linear_93_144" x1="0" y1="9.1875" x2="11.8125" y2="9.1875" gradientUnits="userSpaceOnUse">
<stop stop-color="#064484"/>
<stop offset="1" stop-color="#0F65B5"/>
</linearGradient>
</defs>
</svg>
