<svg width="" height="" viewBox="0 0 84 64" fill="none" xmlns="http://www.w3.org/2000/svg">
<path d="M80.4356 1.29995L46.9064 28.0166C43.9877 30.3437 39.8147 30.3333 36.9064 27.9958L3.53141 1.16245C2.22725 0.168704 0.333496 1.08537 0.333496 2.71037V14.3833V55.4916C0.333496 59.8166 3.88766 63.3208 8.271 63.3208H75.7293C80.1127 63.3208 83.6668 59.8145 83.6668 55.4916V2.82287C83.6668 1.17704 81.7335 0.264537 80.4356 1.29995Z" fill="#D1C4E9"/>
<path d="M65.8106 12.9542L37.0814 35.8459C34.1647 38.1688 30.0002 38.1626 27.0897 35.8313L0.333496 14.3855V55.4938C0.333496 59.8188 3.88766 63.323 8.271 63.323H65.8106V12.9542Z" fill="#7C4DFF"/>
</svg>
