<svg width="18" height="16" viewBox="0 0 18 16" fill="none" xmlns="http://www.w3.org/2000/svg">
<path d="M11.4808 8.31242C11.4561 8.31125 11.4273 8.31066 11.3985 8.31066C10.2845 8.31066 9.37757 9.19584 9.34228 10.301V10.3045C9.37287 11.3714 10.2451 12.2243 11.3167 12.2243C11.3438 12.2243 11.3702 12.2237 11.3967 12.2225H11.3932C11.4232 12.2243 11.4579 12.2248 11.4932 12.2248C12.6013 12.2248 13.5047 11.3473 13.5464 10.2492V10.2457C13.5282 9.1729 12.6542 8.31007 11.5785 8.31007C11.5443 8.31007 11.5102 8.31125 11.4761 8.31242H11.4808ZM0 3.78479L3.78538 12.2813L2.42556 15.3462H5.75511L10.7974 3.78479H7.49018L5.43222 8.73119L3.39602 3.78479H0.000588184H0ZM13.8623 0L10.4886 7.57782H14.2593L17.64 0H13.8623Z" fill="#720E9E"/>
</svg>
